<svg width="28" height="29" viewBox="0 0 28 29" fill="none" xmlns="http://www.w3.org/2000/svg">
<path d="M14 3.32983C20.4433 3.32983 25.6667 8.55318 25.6667 14.9965C25.6667 21.4398 20.4433 26.6632 14 26.6632C7.55668 26.6632 2.33333 21.4398 2.33333 14.9965C2.33333 8.55318 7.55668 3.32983 14 3.32983ZM14 5.66317C8.84534 5.66317 4.66667 9.84184 4.66667 14.9965C4.66667 20.1512 8.84534 24.3298 14 24.3298C19.1547 24.3298 23.3333 20.1512 23.3333 14.9965C23.3333 9.84184 19.1547 5.66317 14 5.66317ZM14 9.16317C14.6444 9.16317 15.1667 9.6855 15.1667 10.3298V13.8298L18.6667 13.8298C19.311 13.8298 19.8333 14.3522 19.8333 14.9965C19.8333 15.6409 19.311 16.1632 18.6667 16.1632H15.1667L15.1667 19.6632C15.1667 20.3075 14.6444 20.8298 14 20.8298C13.3557 20.8298 12.8333 20.3075 12.8333 19.6632L12.8333 16.1632H9.33333C8.68901 16.1632 8.16667 15.6409 8.16667 14.9965C8.16667 14.3522 8.68901 13.8298 9.33333 13.8298H12.8333V10.3298C12.8333 9.6855 13.3557 9.16317 14 9.16317Z" fill="#1E1E20"/>
</svg>
