<svg width="40" height="41" viewBox="0 0 40 41" fill="none" xmlns="http://www.w3.org/2000/svg">
<path d="M34.6083 14.3004L34.6451 14.6177L34.6576 14.9398V27.0531C34.6576 28.4423 33.9658 29.7333 32.8254 30.5043L32.5743 30.6614L22.0838 36.7181L21.8777 36.8296L21.6671 36.9286V21.9474L34.6083 14.3004ZM5.39269 14.3005L18.3338 21.9474V36.9286C18.1921 36.8666 18.0529 36.7966 17.9171 36.7181L7.42678 30.6614C6.13761 29.9172 5.34344 28.5416 5.34344 27.0531V14.9398C5.34344 14.7238 5.36018 14.5101 5.39269 14.3005ZM22.0838 5.27472L32.5743 11.3314C32.6584 11.38 32.7404 11.4313 32.8204 11.4851L20.0004 19.0606L7.18058 11.4851C7.26048 11.4313 7.34256 11.38 7.42678 11.3314L17.9171 5.27472C19.2063 4.53042 20.7946 4.53042 22.0838 5.27472Z" fill="#1E1E20"/>
</svg>
