<svg width="40" height="41" viewBox="0 0 40 41" fill="none" xmlns="http://www.w3.org/2000/svg">
<path d="M28.3333 4.32996C30.0906 4.32996 31.5303 5.68975 31.6575 7.41452L31.6666 7.66329V34.33C31.6666 36.0873 30.3069 37.5269 28.5821 37.6541L28.3333 37.6633H11.6666C9.90938 37.6633 8.4697 36.3035 8.34246 34.5787L8.33331 34.33V7.66329C8.33331 5.90602 9.69311 4.46635 11.4179 4.3391L11.6666 4.32996H28.3333ZM20.8333 27.6633H19.1666C18.7065 27.6633 18.3333 28.0365 18.3333 28.4966V30.1633C18.3333 30.6235 18.7065 30.9966 19.1666 30.9966H20.8333C21.2935 30.9966 21.6666 30.6235 21.6666 30.1633V28.4966C21.6666 28.0365 21.2935 27.6633 20.8333 27.6633Z" fill="#1E1E20"/>
</svg>
