<svg width="40" height="41" viewBox="0 0 40 41" fill="none" xmlns="http://www.w3.org/2000/svg">
<path d="M20 4.32996C29.2046 4.32996 36.6666 11.7919 36.6666 20.9966C36.6666 30.2013 29.2046 37.6633 20 37.6633C10.7952 37.6633 3.33331 30.2013 3.33331 20.9966C3.33331 11.7919 10.7952 4.32996 20 4.32996ZM25.8923 14.9656L17.6426 23.2151L14.1072 19.6796C13.4563 19.0288 12.401 19.0288 11.7501 19.6796C11.0993 20.3305 11.0993 21.3858 11.7501 22.0366L16.3463 26.6328C17.0623 27.3488 18.2231 27.3488 18.9391 26.6328L28.2493 17.3226C28.9001 16.6717 28.9001 15.6164 28.2493 14.9656C27.5985 14.3147 26.5431 14.3147 25.8923 14.9656Z" fill="#1E1E20"/>
</svg>
