<svg width="32" height="32" viewBox="0 0 32 32" fill="none" xmlns="http://www.w3.org/2000/svg">
<path d="M16 2.66675C23.3638 2.66675 29.3334 8.63628 29.3334 16.0001C29.3334 23.3638 23.3638 29.3334 16 29.3334C8.63622 29.3334 2.66669 23.3638 2.66669 16.0001C2.66669 8.63628 8.63622 2.66675 16 2.66675ZM13.1717 11.286C12.651 10.7653 11.8068 10.7653 11.286 11.286C10.8054 11.7666 10.7684 12.5229 11.1751 13.046L11.286 13.1716L14.1144 15.9999L11.2859 18.8285C10.7652 19.3491 10.7652 20.1934 11.2859 20.7141C11.7666 21.1947 12.5229 21.2317 13.0459 20.825L13.1715 20.7141L16 17.8855L18.8286 20.7141C19.3492 21.2347 20.1935 21.2347 20.7142 20.7141C21.1948 20.2335 21.2317 19.4771 20.8251 18.9541L20.7142 18.8285L17.8856 15.9999L20.714 13.1716C21.2347 12.6509 21.2347 11.8067 20.714 11.286C20.2334 10.8053 19.4771 10.7683 18.954 11.175L18.8284 11.286L16 14.1143L13.1717 11.286Z" fill="#1E1E20" fill-opacity="0.5"/>
</svg>
