<svg width="28" height="29" viewBox="0 0 28 29" fill="none" xmlns="http://www.w3.org/2000/svg">
<path d="M14 3.32991C20.4433 3.32991 25.6667 8.55325 25.6667 14.9966C25.6667 21.4398 20.4433 26.6632 14 26.6632C7.55669 26.6632 2.33334 21.4398 2.33334 14.9966C2.33334 8.55325 7.55669 3.32991 14 3.32991ZM11.5252 10.8717C11.0696 10.4161 10.3309 10.4161 9.87528 10.8717C9.45472 11.2923 9.42237 11.9541 9.77823 12.4117L9.87528 12.5217L12.3501 14.9965L9.87518 17.4714C9.41957 17.927 9.41957 18.6657 9.87518 19.1213C10.2957 19.5419 10.9575 19.5742 11.4152 19.2184L11.5251 19.1213L14 16.6464L16.475 19.1213C16.9306 19.5769 17.6693 19.5769 18.1249 19.1213C18.5454 18.7008 18.5778 18.039 18.2219 17.5813L18.1249 17.4714L15.6499 14.9965L18.1248 12.5216C18.5803 12.066 18.5803 11.3273 18.1248 10.8717C17.7042 10.4512 17.0424 10.4188 16.5848 10.7747L16.4749 10.8717L14 13.3466L11.5252 10.8717Z" fill="#1E1E20"/>
</svg>
