<svg width="28" height="29" viewBox="0 0 28 29" fill="none" xmlns="http://www.w3.org/2000/svg">
<path d="M5.74991 6.747C10.306 2.19093 17.6929 2.19088 22.2491 6.747C26.8051 11.3031 26.8051 18.6901 22.2491 23.2462C17.6929 27.8023 10.306 27.8022 5.74991 23.2462C1.19379 18.69 1.19379 11.3031 5.74991 6.747ZM7.39982 8.39692C3.75493 12.0418 3.75493 17.9514 7.39982 21.5962C11.0447 25.2412 16.9543 25.2411 20.5991 21.5962C24.2441 17.9513 24.2441 12.0418 20.5991 8.39692C16.9543 4.75202 11.0447 4.75201 7.39982 8.39692ZM9.8747 10.8718C10.3303 10.4162 11.069 10.4162 11.5246 10.8718L13.9995 13.3467L16.4744 10.8718C16.93 10.4162 17.6687 10.4162 18.1243 10.8718C18.5799 11.3274 18.5799 12.0661 18.1243 12.5217L15.6494 14.9966L18.1243 17.4715C18.5799 17.9271 18.5799 18.6657 18.1243 19.1214C17.6687 19.577 16.93 19.577 16.4744 19.1214L13.9995 16.6465L11.5246 19.1214C11.069 19.577 10.3303 19.577 9.8747 19.1214C9.41907 18.6657 9.41909 17.9271 9.8747 17.4715L12.3496 14.9966L9.8747 12.5217C9.41908 12.0661 9.41907 11.3274 9.8747 10.8718Z" fill="#1E1E20"/>
</svg>
