<svg width="28" height="29" viewBox="0 0 28 29" fill="none" xmlns="http://www.w3.org/2000/svg">
<path d="M14 3.32992C20.4433 3.32992 25.6667 8.55326 25.6667 14.9966C25.6667 21.4399 20.4433 26.6633 14 26.6633C7.55669 26.6633 2.33334 21.4399 2.33334 14.9966C2.33334 8.55326 7.55669 3.32992 14 3.32992ZM13.1751 10.8718L9.87518 14.1716C9.41957 14.6272 9.41957 15.366 9.87518 15.8215L13.1751 19.1213C13.6306 19.577 14.3693 19.577 14.825 19.1213L18.1248 15.8215C18.5803 15.366 18.5803 14.6272 18.1248 14.1716L14.825 10.8718C14.3693 10.4162 13.6306 10.4162 13.1751 10.8718Z" fill="#1E1E20"/>
</svg>
