<svg width="24" height="25" viewBox="0 0 24 25" fill="none" xmlns="http://www.w3.org/2000/svg">
<path d="M13.5 22.8849C18.3113 22.1611 22 18.0096 22 12.9966C22 7.47373 17.5228 2.99658 12 2.99658C6.47715 2.99658 2 7.47373 2 12.9966C2 18.0096 5.68874 22.1611 10.5 22.8849V15.9966H9C8.17157 15.9966 7.5 15.325 7.5 14.4966C7.5 13.6682 8.17157 12.9966 9 12.9966H10.5V10.9966C10.5 9.06358 12.067 7.49658 14 7.49658H14.5C15.3284 7.49658 16 8.16815 16 8.99658C16 9.82501 15.3284 10.4966 14.5 10.4966H14C13.7239 10.4966 13.5 10.7204 13.5 10.9966V12.9966H15C15.8284 12.9966 16.5 13.6682 16.5 14.4966C16.5 15.325 15.8284 15.9966 15 15.9966H13.5V22.8849Z" fill="white"/>
</svg>
