<svg width="24" height="25" viewBox="0 0 24 25" fill="none" xmlns="http://www.w3.org/2000/svg">
<path d="M16 3.99658C18.7614 3.99658 21 6.23516 21 8.99658V16.9966C21 19.758 18.7614 21.9966 16 21.9966H8C5.23858 21.9966 3 19.758 3 16.9966V8.99658C3 6.23516 5.23858 3.99658 8 3.99658H16ZM12 8.99658C9.79086 8.99658 8 10.7874 8 12.9966C8 15.2057 9.79086 16.9966 12 16.9966C14.2091 16.9966 16 15.2057 16 12.9966C16 10.7874 14.2091 8.99658 12 8.99658ZM12 10.9966C13.1046 10.9966 14 11.892 14 12.9966C14 14.1012 13.1046 14.9966 12 14.9966C10.8954 14.9966 10 14.1012 10 12.9966C10 11.892 10.8954 10.9966 12 10.9966ZM16.5 7.49658C15.9477 7.49658 15.5 7.9443 15.5 8.49658C15.5 9.04886 15.9477 9.49658 16.5 9.49658C17.0523 9.49658 17.5 9.04886 17.5 8.49658C17.5 7.9443 17.0523 7.49658 16.5 7.49658Z" fill="white"/>
</svg>
