<svg width="24" height="25" viewBox="0 0 24 25" fill="none" xmlns="http://www.w3.org/2000/svg">
<path fill-rule="evenodd" clip-rule="evenodd" d="M18 3.99658C19.6569 3.99658 21 5.33973 21 6.99658V18.9966C21 20.6535 19.6569 21.9966 18 21.9966H6C4.34315 21.9966 3 20.6535 3 18.9966V6.99658C3 5.33973 4.34315 3.99658 6 3.99658H18ZM8 10.9966C7.44772 10.9966 7 11.4443 7 11.9966V16.9966C7 17.5489 7.44772 17.9966 8 17.9966C8.55228 17.9966 9 17.5489 9 16.9966V11.9966C9 11.4443 8.55228 10.9966 8 10.9966ZM11 9.99658C10.4477 9.99658 10 10.4443 10 10.9966V16.9966C10 17.5489 10.4477 17.9966 11 17.9966C11.5523 17.9966 12 17.5489 12 16.9966V13.3364C12.3049 12.9921 12.8207 12.5887 13.3933 12.3438C13.7261 12.2014 14.2268 12.1445 14.5751 12.254C14.7274 12.3019 14.8143 12.3692 14.868 12.4417C14.9201 12.5123 15 12.6673 15 12.9966V16.9966C15 17.5488 15.4477 17.9966 16 17.9966C16.5523 17.9966 17 17.5488 17 16.9966V12.9966C17 12.3258 16.8298 11.7308 16.4758 11.2522C16.1232 10.7757 15.6476 10.4947 15.1749 10.3461C14.2732 10.0625 13.2739 10.2195 12.6067 10.505C12.395 10.5955 12.1863 10.7009 11.9841 10.8179C11.8998 10.3509 11.4913 9.99658 11 9.99658ZM8 7.99658C7.44772 7.99658 7 8.4443 7 8.99658C7 9.54886 7.44772 9.99658 8 9.99658C8.55228 9.99658 9 9.54886 9 8.99658C9 8.4443 8.55228 7.99658 8 7.99658Z" fill="white"/>
</svg>
