<svg width="72" height="32" viewBox="0 0 72 32" fill="none" xmlns="http://www.w3.org/2000/svg">
<path d="M10.1224 19.0981V16.4287H12.2282V11.6832H16.1729V16.4287H18.783V19.0981H16.1729V27.1655C16.1729 28.1739 16.6771 28.6781 17.6856 28.6781L18.8719 28.6485V31.6144C18.259 31.654 17.4186 31.6738 16.3509 31.6738C15.1843 31.6738 14.2055 31.3969 13.4146 30.8433C12.6237 30.2699 12.2282 29.3306 12.2282 28.0256V19.0981H10.1224Z" fill="#1E1E20"/>
<path d="M24.7455 16.4287V18.8608H24.8344C25.309 17.971 25.833 17.3185 26.4064 16.9033C26.9798 16.4683 27.7015 16.2508 28.5716 16.2508C28.9868 16.2508 29.3032 16.2903 29.5207 16.3694V19.8989H29.4317C28.0673 19.7605 26.9699 20.0571 26.1395 20.7887C25.309 21.5203 24.8938 22.6671 24.8938 24.2292V31.6441H20.8601V16.4287H24.7455Z" fill="#1E1E20"/>
<path d="M40.4039 31.6441C40.2061 31.387 40.048 30.8235 39.9293 29.9535H39.87C39.435 30.606 38.8813 31.1102 38.2091 31.4661C37.5368 31.8221 36.5976 32 35.3914 32C33.7898 32 32.5045 31.5947 31.5357 30.784C30.5668 29.9733 30.0823 28.8264 30.0823 27.3435C30.0823 25.8012 30.6162 24.6741 31.684 23.9623C32.7517 23.2307 34.2545 22.7264 36.1922 22.4496C37.6159 22.2519 38.5847 22.0542 39.0988 21.8564C39.6129 21.6389 39.87 21.2632 39.87 20.7294C39.87 20.1757 39.6525 19.7407 39.2175 19.4243C38.7825 19.0882 38.1497 18.9201 37.3193 18.9201C35.4804 18.9201 34.5016 19.632 34.383 21.0556H30.7942C30.8535 19.6122 31.4368 18.4159 32.5441 17.4668C33.6514 16.5177 35.253 16.0432 37.3489 16.0432C41.6199 16.0432 43.7554 17.9117 43.7554 21.6488V29.39C43.7554 30.5368 43.9334 31.2387 44.2893 31.4958V31.6441H40.4039ZM36.3702 29.1824C37.4775 29.1824 38.3475 28.8956 38.9802 28.3222C39.6327 27.7488 39.959 27.0666 39.959 26.2757V23.9919C39.524 24.249 38.5847 24.5456 37.1413 24.8817C35.9945 25.1388 35.1838 25.4354 34.7092 25.7715C34.2347 26.0879 33.9974 26.5822 33.9974 27.2545C33.9974 28.5397 34.7883 29.1824 36.3702 29.1824Z" fill="#1E1E20"/>
<path d="M56.3447 31.6441L52.0738 24.7038L50.3238 26.513V31.6441H46.3198V10.4375H50.3238V22.1827L55.7219 16.4287H60.5564L54.9507 22.2123L61.2386 31.6441H56.3447Z" fill="#1E1E20"/>
<path d="M66.3963 16.4287V18.8608H66.4853C66.9598 17.971 67.4838 17.3185 68.0572 16.9033C68.6307 16.4683 69.3524 16.2508 70.2224 16.2508C70.6376 16.2508 70.954 16.2903 71.1715 16.3694V19.8989H71.0825C69.7182 19.7605 68.6208 20.0571 67.7903 20.7887C66.9598 21.5203 66.5446 22.6671 66.5446 24.2292V31.6441H62.5109V16.4287H66.3963Z" fill="#1E1E20"/>
<path fill-rule="evenodd" clip-rule="evenodd" d="M20.105 7.16484C20.154 6.58723 20.1797 5.99256 20.1797 5.38089C20.1797 4.60312 19.6879 3.8674 18.9021 3.5193L10.8302 0.155595C10.625 0.0702093 10.2762 0 10.0541 0C9.83089 0 9.48515 0.0702093 9.27889 0.155595L1.24484 3.5193C0.491882 3.82999 0 4.56487 0 5.38089C0 14.0319 5.04406 19.1716 8.16063 20.9021L20.105 7.16484ZM20.105 7.16484L16.2208 5.54622C16.0157 5.46084 15.6668 5.39063 15.4448 5.39063C15.2215 5.39063 14.8758 5.46084 14.6695 5.54622L6.63546 8.90993C5.88251 9.22061 5.39063 9.95549 5.39063 10.7715C5.39063 14.9725 6.58007 18.3454 8.16063 20.9021L20.105 7.16484Z" fill="#236BFE"/>
</svg>
