<svg width="32" height="33" viewBox="0 0 32 33" fill="none" xmlns="http://www.w3.org/2000/svg">
<path d="M19.9999 27.3883C20.7363 27.3883 21.3333 27.9852 21.3333 28.7216C21.3333 29.458 20.7363 30.055 19.9999 30.055H11.9999C11.2635 30.055 10.6666 29.458 10.6666 28.7216C10.6666 27.9852 11.2635 27.3883 11.9999 27.3883H19.9999ZM19.9999 3.38831C20.6837 3.38831 21.2473 3.90303 21.3243 4.56615L21.3333 4.72164V8.72164H23.9999C25.4058 8.72164 26.5575 9.80947 26.6593 11.1893L26.6666 11.3883V18.055C26.6666 22.3728 23.2458 25.8917 18.9665 26.0495L18.6666 26.055H13.3333C9.01539 26.055 5.49649 22.6342 5.33877 18.3549L5.33325 18.055V11.3883C5.33325 9.98249 6.42109 8.83075 7.8009 8.72895L7.99992 8.72164H10.6666V4.72164C10.6666 3.98527 11.2635 3.38831 11.9999 3.38831C12.6837 3.38831 13.2473 3.90303 13.3243 4.56615L13.3333 4.72164V8.72164H18.6666V4.72164C18.6666 3.98527 19.2635 3.38831 19.9999 3.38831Z" fill="#1E1E20"/>
</svg>
