<svg width="40" height="41" viewBox="0 0 40 41" fill="none" xmlns="http://www.w3.org/2000/svg">
<path d="M23.3333 22.6632C24.1881 22.6632 24.8925 23.3066 24.9888 24.1355L25 24.3299V34.3299C25 35.2504 24.2538 35.9966 23.3333 35.9966C22.4786 35.9966 21.7742 35.3532 21.6779 34.5243L21.6667 34.3299V24.3299C21.6667 23.4094 22.4128 22.6632 23.3333 22.6632ZM28.3333 30.1632C29.2538 30.1632 30 30.9094 30 31.8299V34.3299C30 35.2504 29.2538 35.9966 28.3333 35.9966C27.4128 35.9966 26.6667 35.2504 26.6667 34.3299V31.8299C26.6667 30.9094 27.4128 30.1632 28.3333 30.1632ZM33.3333 22.6632C34.1881 22.6632 34.8925 23.3066 34.9888 24.1355L35 24.3299V34.3299C35 35.2504 34.2538 35.9966 33.3333 35.9966C32.4786 35.9966 31.7742 35.3532 31.6779 34.5243L31.6667 34.3299V24.3299C31.6667 23.4094 32.4128 22.6632 33.3333 22.6632ZM15 22.6632C16.841 22.6632 18.3333 24.1556 18.3333 25.9966V32.6632C18.3333 34.5042 16.841 35.9966 15 35.9966H8.33333C6.49238 35.9966 5 34.5042 5 32.6632V25.9966C5 24.1556 6.49238 22.6632 8.33333 22.6632H15ZM28.3333 22.6632C29.1881 22.6632 29.8925 23.3066 29.9888 24.1355L30 24.3299V26.8299C30 27.7504 29.2538 28.4966 28.3333 28.4966C27.4786 28.4966 26.7742 27.8532 26.6779 27.0243L26.6667 26.8299V24.3299C26.6667 23.4094 27.4128 22.6632 28.3333 22.6632ZM15 5.99658C16.841 5.99658 18.3333 7.48897 18.3333 9.32992V15.9966C18.3333 17.8376 16.841 19.3299 15 19.3299H8.33333C6.49238 19.3299 5 17.8376 5 15.9966V9.32992C5 7.48897 6.49238 5.99658 8.33333 5.99658H15ZM31.6667 5.99658C33.5077 5.99658 35 7.48897 35 9.32992V15.9966C35 17.8376 33.5077 19.3299 31.6667 19.3299H25C23.159 19.3299 21.6667 17.8376 21.6667 15.9966V9.32992C21.6667 7.48897 23.159 5.99658 25 5.99658H31.6667Z" fill="#1E1E20"/>
</svg>
