<svg width="28" height="29" viewBox="0 0 28 29" fill="none" xmlns="http://www.w3.org/2000/svg">
<path d="M14 3.32991C20.4433 3.32991 25.6667 8.55326 25.6667 14.9966C25.6667 21.4398 20.4433 26.6632 14 26.6632C7.55669 26.6632 2.33334 21.4398 2.33334 14.9966C2.33334 8.55326 7.55669 3.32991 14 3.32991ZM14 7.99658C13.3557 7.99658 12.8333 8.51892 12.8333 9.16325V14.9966C12.8333 15.306 12.9563 15.6028 13.1751 15.8215L16.6751 19.3215C17.1306 19.7771 17.8694 19.7771 18.325 19.3215C18.7805 18.8659 18.7805 18.1272 18.325 17.6716L15.1667 14.5133V9.16325C15.1667 8.51892 14.6444 7.99658 14 7.99658Z" fill="#1E1E20"/>
</svg>
