<svg width="24" height="25" viewBox="0 0 24 25" fill="none" xmlns="http://www.w3.org/2000/svg">
<path d="M4.59375 5.97988C4.9629 5.93685 5.32546 6.10208 5.53516 6.40891C7.01054 8.56772 8.78262 9.46579 10.7489 9.67011C10.8454 8.82892 11.0724 7.99776 11.4991 7.266C12.125 6.19235 13.143 5.40191 14.5972 5.10983C16.6066 4.70623 18.1366 5.43394 19.0244 6.32515L20.8162 5.99019C21.199 5.91865 21.5884 6.07575 21.8144 6.39283C22.0403 6.7099 22.0617 7.12931 21.8691 7.46772L20.1496 10.4898C20.3064 14.8512 19.0944 17.8949 16.5103 19.9919C15.1395 21.1042 13.178 21.7351 11.0249 21.9299C8.85497 22.1262 6.40214 21.8888 3.96382 21.1768C3.53604 21.0519 3.24254 20.659 3.24412 20.2134C3.24569 19.7677 3.54195 19.3769 3.9706 19.255C5.19682 18.9063 6.13012 18.6048 6.97377 18.0783C5.77531 17.442 4.89225 16.6102 4.26726 15.6619C3.39859 14.3438 3.07648 12.8744 3.01253 11.5491C2.94859 10.2239 3.14009 8.99657 3.34178 8.11074C3.45659 7.60648 3.59069 7.09988 3.77553 6.61593C3.90978 6.26713 4.22461 6.02292 4.59375 5.97988Z" fill="white"/>
</svg>
